<svg xmlns="http://www.w3.org/2000/svg" xml:space="preserve" id="Layer_1" width="120" height="60" x="0" y="0" version="1.1"><style id="style2" type="text/css">.st0{fill:#fff}</style><g id="g14" transform="matrix(.42499 0 0 .42499 9.023 17.144)"><path id="path4" d="M126.4 2.3v55.9h-13.9V2.3Z" class="st0" style="fill:#fff"/><path id="path6" d="M160.9.5c16.6 0 30 12.9 30 29.6 0 16.8-13.5 29.9-30.2 29.9s-30.2-13-30.2-29.7C130.6 13.6 144.3.5 160.9.5Zm-.1 45.9c8.8 0 15.3-7.6 15.3-16.2s-6.5-16.1-15.3-16.1-15.3 7.5-15.3 16.1c0 8.6 6.5 16.2 15.3 16.2z" class="st0" style="fill:#fff"/><path id="path8" d="m192.5 41.2 12.7-3c.9 6.7 5.8 9.1 10.9 9.1 5.1 0 6.9-3 6.9-5.4 0-1.9-1.1-3.8-4.8-4.5l-7.8-1.5c-9.3-1.8-15.9-7.6-15.9-16.6 0-10.7 9.7-18.2 20.8-18.2 14.2 0 20 8.8 21 16.3L224 21c-.7-4.6-3.5-7.9-8.6-7.9-4.4 0-6.5 2.9-6.5 5.2 0 1.9.9 4 4.2 4.6l8.1 1.5c10.6 2.1 16.4 8.5 16.4 16.9 0 9.1-7.9 17.9-21.4 17.9-14.3.1-21.8-7.3-23.7-18z" class="st0" style="fill:#fff"/><path id="path10" d="M17.2 58.1H2.3L26.9 2.3h15z" style="fill:#0a99e0"/><path id="polygon12" d="M51.7 58.1h18.7l11.7-17.7 11.6 17.7H109L90.5 29.6l18.6-27.4h-17l-10 16.6-9.7-16.6H55.2l18.7 27.4-12.1 17.7-19.9-45h-15z" class="st0" style="fill:#fff"/></g><path id="path4-8" d="M62.741 18.122v23.756h-5.907V18.122Z" class="st0" style="fill:#222;stroke-width:.42498937;fill-opacity:1"/><path id="path6-5" d="M77.403 17.357c7.055 0 12.75 5.482 12.75 12.58 0 7.14-5.737 12.706-12.835 12.706-7.097 0-12.834-5.524-12.834-12.622.042-7.097 5.864-12.664 12.92-12.664zm-.042 19.507c3.74 0 6.502-3.23 6.502-6.885s-2.762-6.843-6.502-6.843c-3.74 0-6.503 3.188-6.503 6.843s2.763 6.885 6.503 6.885z" class="st0" style="fill:#222;fill-opacity:1;stroke-width:.42498937"/><path id="path8-5" d="m90.833 34.654 5.397-1.275c.383 2.847 2.465 3.867 4.633 3.867 2.167 0 2.932-1.275 2.932-2.295 0-.807-.467-1.615-2.04-1.912L98.44 32.4c-3.952-.765-6.757-3.23-6.757-7.055 0-4.547 4.122-7.734 8.84-7.734 6.035 0 8.5 3.74 8.925 6.927l-5.228 1.53c-.297-1.955-1.487-3.358-3.655-3.358-1.87 0-2.762 1.233-2.762 2.21 0 .808.382 1.7 1.785 1.955l3.442.638c4.505.892 6.97 3.612 6.97 7.182 0 3.868-3.357 7.607-9.095 7.607-6.077.043-9.265-3.102-10.072-7.65z" class="st0" style="fill:#222;fill-opacity:1;stroke-width:.42498937"/><path id="path861" d="M20.455 18.122h6.375l8.457 19.124 5.142-7.522-7.947-11.645h7.31l4.122 7.055 4.25-7.055h7.225l-7.905 11.645 7.862 12.112h-6.502l-4.93-7.522-4.972 7.522h-7.948L23.746 25.24z" style="fill:#222;fill-opacity:1;stroke:none;stroke-width:.42498937px;stroke-linecap:butt;stroke-linejoin:miter;stroke-opacity:1"/><path id="path868" d="m20.455 18.122 10.54 23.714L28.546 27.6l-8.092-9.478" style="fill:#222;fill-opacity:1;stroke:none;stroke-width:.42498937px;stroke-linecap:butt;stroke-linejoin:miter;stroke-opacity:1"/></svg>